<mxfile host="app.diagrams.net" agent="Mozilla/5.0 (Windows NT 10.0; Win64; x64) AppleWebKit/537.36 (KHTML, like Gecko) Chrome/136.0.0.0 Safari/537.36 Edg/136.0.0.0" version="27.0.2">
  <diagram name="ページ1" id="doA6xD3_WjDdoZBZdHXx">
    <mxGraphModel dx="750" dy="713" grid="1" gridSize="10" guides="1" tooltips="1" connect="1" arrows="1" fold="1" page="1" pageScale="1" pageWidth="827" pageHeight="1169" math="0" shadow="0">
      <root>
        <mxCell id="0" />
        <mxCell id="1" parent="0" />
        <mxCell id="09Ewap5CsXCj-wxNMavV-1" value="" style="rounded=0;whiteSpace=wrap;html=1;dashed=1;strokeColor=light-dark(#4799c2, #ededed);" parent="1" vertex="1">
          <mxGeometry x="80" y="260" width="170" height="120" as="geometry" />
        </mxCell>
        <mxCell id="09Ewap5CsXCj-wxNMavV-3" value="" style="shape=image;verticalLabelPosition=bottom;labelBackgroundColor=default;verticalAlign=top;aspect=fixed;imageAspect=0;editableCssRules=.*;image=data:image/svg+xml,PHN2ZyB4bWxucz0iaHR0cDovL3d3dy53My5vcmcvMjAwMC9zdmciIHZpZXdCb3g9IjAuMTQxOTk5MjQ0Njg5OTQxNCAwIDE3LjcxNjAwMzQxNzk2ODc1IDE4IiBoZWlnaHQ9IjE4IiB3aWR0aD0iMTcuNzE2MDAzNDE3OTY4NzUiPjxkZWZzPjxsaW5lYXJHcmFkaWVudCBncmFkaWVudFVuaXRzPSJ1c2VyU3BhY2VPblVzZSIgeTI9IjEzLjk2MiIgeDI9IjcuMTIzIiB4MT0iNy4xMjMiIGlkPSJmNDBmYjFmZi0wODUyLTQwMzktOTU5OS03MWFhNTY0YjEzYzciPjxzdG9wIHN0b3AtY29sb3I9IiMwMDc4ZDQiIG9mZnNldD0iMCIvPjxzdG9wIHN0b3AtY29sb3I9IiMwMDViYTEiIG9mZnNldD0iMSIvPjwvbGluZWFyR3JhZGllbnQ+PC9kZWZzPjxnIGlkPSJhNTk1NDcyNi00ODA3LTRjNTctYjkyOC1jZjA5OTlmOGQxNDUiPjxjaXJjbGUgZmlsbD0idXJsKCNmNDBmYjFmZi0wODUyLTQwMzktOTU5OS03MWFhNTY0YjEzYzcpIiByPSI2Ljk4MSIgY3k9IjYuOTgxIiBjeD0iNy4xMjMiLz48Y2lyY2xlIGZpbGw9IiMwMDc4ZDQiIHI9IjYuNjg0IiBjeT0iMTEuMTY0IiBjeD0iMTEuMDIyIi8+PHBhdGggZmlsbD0iIzgzYjlmOSIgZD0iTTE3Ljg1OCwxMC45NGgtLjAxMWE2LjgzNSw2LjgzNSwwLDEsMCwwLC40NWguMDExWm0tMi44MzUsMGE3Ljg1MSw3Ljg1MSwwLDAsMC0uNTUtMi44NDZoMi4xNDVBNi4zNTEsNi4zNTEsMCwwLDEsMTcuNCwxMC45NFptLTEwLjM3NS40NUg3LjExNGE3LjgzLDcuODMsMCwwLDAsLjU2NCwyLjg0N0g1LjQyOEE2LjMzNCw2LjMzNCwwLDAsMSw0LjY0OCwxMS4zOVptNi4yODQtMy43NDZoLTIuNWE3LjcyNCw3LjcyNCwwLDAsMSwyLjUtMi40NjZabS40NS0yLjQ2NUE3LjA5NCw3LjA5NCwwLDAsMSwxMy43Nyw3LjY0NEgxMS4zODJabS0uNDUsMi45MTVWMTAuOTRINy41NjNhNi44MTYsNi44MTYsMCwwLDEsLjY0NS0yLjg0NlpNNy4xMTMsMTAuOTRINC42NDhhNi4zMzgsNi4zMzgsMCwwLDEsLjc3OS0yLjg0Nkg3LjcxNEE3LjM2NCw3LjM2NCwwLDAsMCw3LjExMywxMC45NFptLjQ1MS40NWgzLjM2OHYyLjg0N0g4LjE4M0E3LjI1Miw3LjI1MiwwLDAsMSw3LjU2NCwxMS4zOVptMy4zNjgsMy4zVjE3LjNBNy40NjEsNy40NjEsMCwwLDEsOC40LDE0LjY4OFptLjQ1LDBoMi4zNTJhNy4zNDksNy4zNDksMCwwLDEtMi4zNTIsMi40OTRabTAtLjQ1MVYxMS4zOWgzLjE5MWE3LjI1Miw3LjI1MiwwLDAsMS0uNjE5LDIuODQ3Wm0wLTMuM1Y4LjA5NGgyLjZhNy4zLDcuMywwLDAsMSwuNTksMi44NDZabTQuOTYyLTMuM0gxNC4yNThBNy40MjksNy40MjksMCwwLDAsMTEuNjM3LDQuODEsNi4zODksNi4zODksMCwwLDEsMTYuMzQ0LDcuNjQ0Wk0xMC43LDQuOEE4LDgsMCwwLDAsNy45NDEsNy42NDRINS43QTYuMzc5LDYuMzc5LDAsMCwxLDEwLjcsNC44Wk01LjcsMTQuNjg4SDcuOWE3LjY0OCw3LjY0OCwwLDAsMCwyLjU1OCwyLjgzM0E2LjM4Nyw2LjM4NywwLDAsMSw1LjcsMTQuNjg4Wm01Ljk5LDIuODI2YTcuNjQ5LDcuNjQ5LDAsMCwwLDIuNTQ4LTIuODI2aDIuMUE2LjM5LDYuMzksMCwwLDEsMTEuNjkyLDE3LjUxNFptNC45MjUtMy4yNzdIMTQuNDU5YTcuODMsNy44MywwLDAsMCwuNTY0LTIuODQ3SDE3LjRBNi4zNDYsNi4zNDYsMCwwLDEsMTYuNjE3LDE0LjIzN1oiLz48cGF0aCBmaWxsPSIjNDJlOGNhIiBkPSJNMTEuMDMxLDkuNjg0YTEuNTM4LDEuNTM4LDAsMCwwLS42NjMuMTU0TDYuMzI4LDQuODYyYTEuNTczLDEuNTczLDAsMSwwLS43MDcuNTQ4TDkuNywxMC40MzhhMS41MzksMS41MzksMCwwLDAtLjIzLjgsMS41NTcsMS41NTcsMCwxLDAsMS41NTctMS41NTdaIi8+PC9nPjwvc3ZnPg==;" parent="1" vertex="1">
          <mxGeometry x="280" y="282" width="18" height="18" as="geometry" />
        </mxCell>
        <mxCell id="09Ewap5CsXCj-wxNMavV-5" value="" style="rounded=0;whiteSpace=wrap;html=1;dashed=1;strokeColor=light-dark(#5797ff, #ededed);" parent="1" vertex="1">
          <mxGeometry x="120" y="290" width="100" height="70" as="geometry" />
        </mxCell>
        <mxCell id="09Ewap5CsXCj-wxNMavV-4" value="" style="shape=image;verticalLabelPosition=bottom;labelBackgroundColor=default;verticalAlign=top;aspect=fixed;imageAspect=0;editableCssRules=.*;image=data:image/svg+xml,PHN2ZyB4bWxucz0iaHR0cDovL3d3dy53My5vcmcvMjAwMC9zdmciIHZpZXdCb3g9Ii0wLjEyMDAwMDAwNDc2ODM3MTU4IDAuMjA5OTk5OTkzNDQzNDg5MDcgMTggMTYuNjMwMDAxMDY4MTE1MjM0IiBoZWlnaHQ9IjE2LjYzMDAwMTA2ODExNTIzNCIgd2lkdGg9IjE4IiBpZD0iZmQ0NTRmMWMtNTUwNi00NGI4LTg3NGUtODgxNGI4YjJmNzBiIj48ZGVmcz48bGluZWFyR3JhZGllbnQgZ3JhZGllbnRVbml0cz0idXNlclNwYWNlT25Vc2UiIHkyPSIwLjIxIiB4Mj0iOC44OCIgeTE9IjEyLjIxIiB4MT0iOC44OCIgaWQ9ImYzNGQ5NTY5LTJiZDAtNDAwMi04ZjE2LTNkMDFkODEwNmNiNSI+PHN0b3Agc3RvcC1jb2xvcj0iIzAwNzhkNCIgb2Zmc2V0PSIwIi8+PHN0b3Agc3RvcC1jb2xvcj0iIzVlYTBlZiIgb2Zmc2V0PSIwLjgyIi8+PC9saW5lYXJHcmFkaWVudD48bGluZWFyR3JhZGllbnQgZ3JhZGllbnRVbml0cz0idXNlclNwYWNlT25Vc2UiIHkyPSIxMi4yMSIgeDI9IjguODgiIHkxPSIxNi44NCIgeDE9IjguODgiIGlkPSJiZGI0NWEwYi1lYjU4LTQ5NzAtYTYwYS1mYjJjZTMxNGY4NjYiPjxzdG9wIHN0b3AtY29sb3I9IiNjY2MiIG9mZnNldD0iMC4xNSIvPjxzdG9wIHN0b3AtY29sb3I9IiM3MDcwNzAiIG9mZnNldD0iMSIvPjwvbGluZWFyR3JhZGllbnQ+PC9kZWZzPjx0aXRsZT5JY29uLWNvbXB1dGUtMjE8L3RpdGxlPjxyZWN0IGZpbGw9InVybCgjZjM0ZDk1NjktMmJkMC00MDAyLThmMTYtM2QwMWQ4MTA2Y2I1KSIgcng9IjAuNiIgaGVpZ2h0PSIxMiIgd2lkdGg9IjE4IiB5PSIwLjIxIiB4PSItMC4xMiIvPjxwb2x5Z29uIGZpbGw9IiM1MGU2ZmYiIHBvaW50cz0iMTEuODggNC40NiAxMS44OCA3Ljk1IDguODggOS43MSA4Ljg4IDYuMjEgMTEuODggNC40NiIvPjxwb2x5Z29uIGZpbGw9IiNjM2YxZmYiIHBvaW50cz0iMTEuODggNC40NiA4Ljg4IDYuMjIgNS44OCA0LjQ2IDguODggMi43MSAxMS44OCA0LjQ2Ii8+PHBvbHlnb24gZmlsbD0iIzljZWJmZiIgcG9pbnRzPSI4Ljg4IDYuMjIgOC44OCA5LjcxIDUuODggNy45NSA1Ljg4IDQuNDYgOC44OCA2LjIyIi8+PHBvbHlnb24gZmlsbD0iI2MzZjFmZiIgcG9pbnRzPSI1Ljg4IDcuOTUgOC44OCA2LjIxIDguODggOS43MSA1Ljg4IDcuOTUiLz48cG9seWdvbiBmaWxsPSIjOWNlYmZmIiBwb2ludHM9IjExLjg4IDcuOTUgOC44OCA2LjIxIDguODggOS43MSAxMS44OCA3Ljk1Ii8+PHBhdGggZmlsbD0idXJsKCNiZGI0NWEwYi1lYjU4LTQ5NzAtYTYwYS1mYjJjZTMxNGY4NjYpIiBkPSJNMTIuNDksMTUuODRjLTEuNzgtLjI4LTEuODUtMS41Ni0xLjg1LTMuNjNINy4xMWMwLDIuMDctLjA2LDMuMzUtMS44NCwzLjYzYTEsMSwwLDAsMC0uODksMWg5QTEsMSwwLDAsMCwxMi40OSwxNS44NFoiLz48L3N2Zz4=;" parent="1" vertex="1">
          <mxGeometry x="161" y="320" width="18" height="17" as="geometry" />
        </mxCell>
        <mxCell id="09Ewap5CsXCj-wxNMavV-6" value="" style="shape=flexArrow;endArrow=classic;startArrow=classic;html=1;rounded=0;startWidth=7.884615384615384;endWidth=7.884615384615384;startSize=3.4826923076923073;endSize=3.4826923076923073;" parent="1" edge="1">
          <mxGeometry width="100" height="100" relative="1" as="geometry">
            <mxPoint x="250" y="310" as="sourcePoint" />
            <mxPoint x="380" y="310" as="targetPoint" />
          </mxGeometry>
        </mxCell>
        <mxCell id="09Ewap5CsXCj-wxNMavV-8" value="&lt;font style=&quot;font-size: 10px;&quot;&gt;Vnet1&lt;/font&gt;" style="text;strokeColor=none;align=center;fillColor=none;html=1;verticalAlign=middle;whiteSpace=wrap;rounded=0;" parent="1" vertex="1">
          <mxGeometry x="99" y="235" width="41" height="20" as="geometry" />
        </mxCell>
        <mxCell id="09Ewap5CsXCj-wxNMavV-9" value="" style="shape=image;verticalLabelPosition=bottom;labelBackgroundColor=default;verticalAlign=top;aspect=fixed;imageAspect=0;editableCssRules=.*;image=data:image/svg+xml,PHN2ZyB4bWxucz0iaHR0cDovL3d3dy53My5vcmcvMjAwMC9zdmciIHZpZXdCb3g9Ii0wLjI1MjgxMTg3ODkxOTYwMTQ0IDMuNDgyNzcyMTExODkyNyAxOC41MDMwODAzNjgwNDE5OTIgMTEuMDMyODQ0NTQzNDU3MDMxIiBoZWlnaHQ9IjExLjAzMjg0NDU0MzQ1NzAzMSIgd2lkdGg9IjE4LjUwMzA4MDM2ODA0MTk5MiIgaWQ9ImExNjA2YTUyLWZiMTQtNDYzNy04N2RlLTRkNTI0YmJhMTgyOSI+PGRlZnM+PGxpbmVhckdyYWRpZW50IGdyYWRpZW50VW5pdHM9InVzZXJTcGFjZU9uVXNlIiBncmFkaWVudFRyYW5zZm9ybT0idHJhbnNsYXRlKDIuMDMgLTAuNCkgcm90YXRlKC0wLjA4KSIgeTI9IjEwLjIzIiB4Mj0iMTEuNTIiIHkxPSI4LjU5IiB4MT0iOS44OCIgaWQ9ImYwMjBmYjdlLTIyNDMtNDUwMS04MTUzLTVkNjliZDNjMzRmNyI+PHN0b3Agc3RvcC1jb2xvcj0iIzg2ZDYzMyIgb2Zmc2V0PSIwIi8+PHN0b3Agc3RvcC1jb2xvcj0iIzVlOTYyNCIgb2Zmc2V0PSIxIi8+PC9saW5lYXJHcmFkaWVudD48bGluZWFyR3JhZGllbnQgZ3JhZGllbnRVbml0cz0idXNlclNwYWNlT25Vc2UiIHkyPSIxMC4yMyIgeDI9IjcuODEiIHkxPSI4LjU5IiB4MT0iNi4xOCIgaWQ9ImIzYzJiYzk0LThjN2MtNDhhMi05NzE5LTZlZTg5OWE0M2E5NyI+PHN0b3Agc3RvcC1jb2xvcj0iIzg2ZDYzMyIgb2Zmc2V0PSIwIi8+PHN0b3Agc3RvcC1jb2xvcj0iIzVlOTYyNCIgb2Zmc2V0PSIxIi8+PC9saW5lYXJHcmFkaWVudD48bGluZWFyR3JhZGllbnQgZ3JhZGllbnRVbml0cz0idXNlclNwYWNlT25Vc2UiIHkyPSIxMC4yMyIgeDI9IjQuMTEiIHkxPSI4LjU5IiB4MT0iMi40OCIgaWQ9ImU5MDBjMzVkLTA5NTgtNGQ0Zi1iMjhmLTMwMmVlYWFmNTJmNSI+PHN0b3Agc3RvcC1jb2xvcj0iIzg2ZDYzMyIgb2Zmc2V0PSIwIi8+PHN0b3Agc3RvcC1jb2xvcj0iIzVlOTYyNCIgb2Zmc2V0PSIxIi8+PC9saW5lYXJHcmFkaWVudD48L2RlZnM+PHRpdGxlPkljb24tbmV0d29ya2luZy02MTwvdGl0bGU+PGNpcmNsZSBmaWxsPSJ1cmwoI2YwMjBmYjdlLTIyNDMtNDUwMS04MTUzLTVkNjliZDNjMzRmNykiIHI9IjEuMTYiIGN5PSI4Ljk5IiBjeD0iMTIuNzQiLz48Y2lyY2xlIGZpbGw9InVybCgjYjNjMmJjOTQtOGM3Yy00OGEyLTk3MTktNmVlODk5YTQzYTk3KSIgcj0iMS4xNiIgY3k9IjkiIGN4PSI5LjA0Ii8+PGNpcmNsZSBmaWxsPSJ1cmwoI2U5MDBjMzVkLTA5NTgtNGQ0Zi1iMjhmLTMwMmVlYWFmNTJmNSkiIHI9IjEuMTYiIGN5PSI5IiBjeD0iNS4zNCIvPjxwYXRoIGZpbGw9IiM1MGU2ZmYiIHRyYW5zZm9ybT0idHJhbnNsYXRlKDEzLjE4IDE2LjkzKSByb3RhdGUoMTM0LjkyKSIgZD0iTTIuNjEsNy4yOGguOTRhLjMuMywwLDAsMSwuMy4zdjYuOTRhLjYuNiwwLDAsMS0uNi42SDIuMzFhMCwwLDAsMCwxLDAsMFY3LjU4YS4zLjMsMCwwLDEsLjMtLjNaIi8+PHBhdGggZmlsbD0iIzE0OTBkZiIgdHJhbnNmb3JtPSJ0cmFuc2xhdGUoNS42NiAtMC4xNikgcm90YXRlKDQ0LjkyKSIgZD0iTTIuNTYsMi45MUgzLjVhLjMuMywwLDAsMSwuMy4zdjcuNDNhMCwwLDAsMCwxLDAsMEgyLjg2YS42LjYsMCwwLDEtLjYtLjZWMy4yMWEuMy4zLDAsMCwxLC4zLS4zWiIvPjxwYXRoIGZpbGw9IiM1MGU2ZmYiIHRyYW5zZm9ybT0idHJhbnNsYXRlKDEyLjMyIC03LjI4KSByb3RhdGUoNDUuMDgpIiBkPSJNMTQuMTUsNy4yOGguOTRhLjYuNiwwLDAsMSwuNi42djYuOTRhLjMuMywwLDAsMS0uMy4zaC0uOTRhLjMuMywwLDAsMS0uMy0uM1Y3LjI4YTAsMCwwLDAsMSwwLDBaIi8+PHBhdGggZmlsbD0iIzE0OTBkZiIgdHJhbnNmb3JtPSJ0cmFuc2xhdGUoMzAuMzYgMC45OSkgcm90YXRlKDEzNS4wOCkiIGQ9Ik0xNC44MSwyLjkxaC45NGEwLDAsMCwwLDEsMCwwdjcuNDNhLjMuMywwLDAsMS0uMy4zSDE0LjVhLjMuMywwLDAsMS0uMy0uM1YzLjUxYS42LjYsMCwwLDEsLjYtLjZaIi8+PC9zdmc+;" parent="1" vertex="1">
          <mxGeometry x="80" y="239.5" width="19" height="11" as="geometry" />
        </mxCell>
        <mxCell id="pbFbtCoL2FlEitgn5Cav-2" value="&lt;font style=&quot;font-size: 10px;&quot;&gt;VM1&lt;/font&gt;" style="text;strokeColor=none;align=center;fillColor=none;html=1;verticalAlign=middle;whiteSpace=wrap;rounded=0;" vertex="1" parent="1">
          <mxGeometry x="120" y="317" width="41" height="20" as="geometry" />
        </mxCell>
        <mxCell id="pbFbtCoL2FlEitgn5Cav-7" value="&lt;span style=&quot;font-size: 10px;&quot;&gt;10.0.0.4&lt;/span&gt;" style="text;strokeColor=none;align=center;fillColor=none;html=1;verticalAlign=middle;whiteSpace=wrap;rounded=0;" vertex="1" parent="1">
          <mxGeometry x="120" y="337" width="41" height="20" as="geometry" />
        </mxCell>
        <mxCell id="pbFbtCoL2FlEitgn5Cav-8" value="&lt;font style=&quot;font-size: 10px;&quot;&gt;subnet&lt;/font&gt;" style="text;strokeColor=none;align=center;fillColor=none;html=1;verticalAlign=middle;whiteSpace=wrap;rounded=0;" vertex="1" parent="1">
          <mxGeometry x="149.5" y="270" width="41" height="20" as="geometry" />
        </mxCell>
        <mxCell id="pbFbtCoL2FlEitgn5Cav-10" value="&lt;font style=&quot;font-size: 10px;&quot;&gt;Peering&lt;/font&gt;" style="text;strokeColor=none;align=center;fillColor=none;html=1;verticalAlign=middle;whiteSpace=wrap;rounded=0;" vertex="1" parent="1">
          <mxGeometry x="298" y="280" width="41" height="20" as="geometry" />
        </mxCell>
        <mxCell id="pbFbtCoL2FlEitgn5Cav-11" value="&lt;span style=&quot;font-size: 10px;&quot;&gt;10.0.0.0/24&lt;/span&gt;" style="text;strokeColor=none;align=center;fillColor=none;html=1;verticalAlign=middle;whiteSpace=wrap;rounded=0;" vertex="1" parent="1">
          <mxGeometry x="90" y="260" width="41" height="20" as="geometry" />
        </mxCell>
        <mxCell id="pbFbtCoL2FlEitgn5Cav-12" value="" style="rounded=0;whiteSpace=wrap;html=1;dashed=1;strokeColor=light-dark(#4799c2, #ededed);" vertex="1" parent="1">
          <mxGeometry x="380" y="475" width="170" height="120" as="geometry" />
        </mxCell>
        <mxCell id="pbFbtCoL2FlEitgn5Cav-13" value="" style="shape=image;verticalLabelPosition=bottom;labelBackgroundColor=default;verticalAlign=top;aspect=fixed;imageAspect=0;editableCssRules=.*;image=data:image/svg+xml,PHN2ZyB4bWxucz0iaHR0cDovL3d3dy53My5vcmcvMjAwMC9zdmciIHZpZXdCb3g9IjAuMTQxOTk5MjQ0Njg5OTQxNCAwIDE3LjcxNjAwMzQxNzk2ODc1IDE4IiBoZWlnaHQ9IjE4IiB3aWR0aD0iMTcuNzE2MDAzNDE3OTY4NzUiPjxkZWZzPjxsaW5lYXJHcmFkaWVudCBncmFkaWVudFVuaXRzPSJ1c2VyU3BhY2VPblVzZSIgeTI9IjEzLjk2MiIgeDI9IjcuMTIzIiB4MT0iNy4xMjMiIGlkPSJmNDBmYjFmZi0wODUyLTQwMzktOTU5OS03MWFhNTY0YjEzYzciPjxzdG9wIHN0b3AtY29sb3I9IiMwMDc4ZDQiIG9mZnNldD0iMCIvPjxzdG9wIHN0b3AtY29sb3I9IiMwMDViYTEiIG9mZnNldD0iMSIvPjwvbGluZWFyR3JhZGllbnQ+PC9kZWZzPjxnIGlkPSJhNTk1NDcyNi00ODA3LTRjNTctYjkyOC1jZjA5OTlmOGQxNDUiPjxjaXJjbGUgZmlsbD0idXJsKCNmNDBmYjFmZi0wODUyLTQwMzktOTU5OS03MWFhNTY0YjEzYzcpIiByPSI2Ljk4MSIgY3k9IjYuOTgxIiBjeD0iNy4xMjMiLz48Y2lyY2xlIGZpbGw9IiMwMDc4ZDQiIHI9IjYuNjg0IiBjeT0iMTEuMTY0IiBjeD0iMTEuMDIyIi8+PHBhdGggZmlsbD0iIzgzYjlmOSIgZD0iTTE3Ljg1OCwxMC45NGgtLjAxMWE2LjgzNSw2LjgzNSwwLDEsMCwwLC40NWguMDExWm0tMi44MzUsMGE3Ljg1MSw3Ljg1MSwwLDAsMC0uNTUtMi44NDZoMi4xNDVBNi4zNTEsNi4zNTEsMCwwLDEsMTcuNCwxMC45NFptLTEwLjM3NS40NUg3LjExNGE3LjgzLDcuODMsMCwwLDAsLjU2NCwyLjg0N0g1LjQyOEE2LjMzNCw2LjMzNCwwLDAsMSw0LjY0OCwxMS4zOVptNi4yODQtMy43NDZoLTIuNWE3LjcyNCw3LjcyNCwwLDAsMSwyLjUtMi40NjZabS40NS0yLjQ2NUE3LjA5NCw3LjA5NCwwLDAsMSwxMy43Nyw3LjY0NEgxMS4zODJabS0uNDUsMi45MTVWMTAuOTRINy41NjNhNi44MTYsNi44MTYsMCwwLDEsLjY0NS0yLjg0NlpNNy4xMTMsMTAuOTRINC42NDhhNi4zMzgsNi4zMzgsMCwwLDEsLjc3OS0yLjg0Nkg3LjcxNEE3LjM2NCw3LjM2NCwwLDAsMCw3LjExMywxMC45NFptLjQ1MS40NWgzLjM2OHYyLjg0N0g4LjE4M0E3LjI1Miw3LjI1MiwwLDAsMSw3LjU2NCwxMS4zOVptMy4zNjgsMy4zVjE3LjNBNy40NjEsNy40NjEsMCwwLDEsOC40LDE0LjY4OFptLjQ1LDBoMi4zNTJhNy4zNDksNy4zNDksMCwwLDEtMi4zNTIsMi40OTRabTAtLjQ1MVYxMS4zOWgzLjE5MWE3LjI1Miw3LjI1MiwwLDAsMS0uNjE5LDIuODQ3Wm0wLTMuM1Y4LjA5NGgyLjZhNy4zLDcuMywwLDAsMSwuNTksMi44NDZabTQuOTYyLTMuM0gxNC4yNThBNy40MjksNy40MjksMCwwLDAsMTEuNjM3LDQuODEsNi4zODksNi4zODksMCwwLDEsMTYuMzQ0LDcuNjQ0Wk0xMC43LDQuOEE4LDgsMCwwLDAsNy45NDEsNy42NDRINS43QTYuMzc5LDYuMzc5LDAsMCwxLDEwLjcsNC44Wk01LjcsMTQuNjg4SDcuOWE3LjY0OCw3LjY0OCwwLDAsMCwyLjU1OCwyLjgzM0E2LjM4Nyw2LjM4NywwLDAsMSw1LjcsMTQuNjg4Wm01Ljk5LDIuODI2YTcuNjQ5LDcuNjQ5LDAsMCwwLDIuNTQ4LTIuODI2aDIuMUE2LjM5LDYuMzksMCwwLDEsMTEuNjkyLDE3LjUxNFptNC45MjUtMy4yNzdIMTQuNDU5YTcuODMsNy44MywwLDAsMCwuNTY0LTIuODQ3SDE3LjRBNi4zNDYsNi4zNDYsMCwwLDEsMTYuNjE3LDE0LjIzN1oiLz48cGF0aCBmaWxsPSIjNDJlOGNhIiBkPSJNMTEuMDMxLDkuNjg0YTEuNTM4LDEuNTM4LDAsMCwwLS42NjMuMTU0TDYuMzI4LDQuODYyYTEuNTczLDEuNTczLDAsMSwwLS43MDcuNTQ4TDkuNywxMC40MzhhMS41MzksMS41MzksMCwwLDAtLjIzLjgsMS41NTcsMS41NTcsMCwxLDAsMS41NTctMS41NTdaIi8+PC9nPjwvc3ZnPg==;" vertex="1" parent="1">
          <mxGeometry x="490" y="422" width="18" height="18" as="geometry" />
        </mxCell>
        <mxCell id="pbFbtCoL2FlEitgn5Cav-14" value="" style="rounded=0;whiteSpace=wrap;html=1;dashed=1;strokeColor=light-dark(#5797ff, #ededed);" vertex="1" parent="1">
          <mxGeometry x="420" y="505" width="100" height="70" as="geometry" />
        </mxCell>
        <mxCell id="pbFbtCoL2FlEitgn5Cav-15" value="" style="shape=image;verticalLabelPosition=bottom;labelBackgroundColor=default;verticalAlign=top;aspect=fixed;imageAspect=0;editableCssRules=.*;image=data:image/svg+xml,PHN2ZyB4bWxucz0iaHR0cDovL3d3dy53My5vcmcvMjAwMC9zdmciIHZpZXdCb3g9Ii0wLjEyMDAwMDAwNDc2ODM3MTU4IDAuMjA5OTk5OTkzNDQzNDg5MDcgMTggMTYuNjMwMDAxMDY4MTE1MjM0IiBoZWlnaHQ9IjE2LjYzMDAwMTA2ODExNTIzNCIgd2lkdGg9IjE4IiBpZD0iZmQ0NTRmMWMtNTUwNi00NGI4LTg3NGUtODgxNGI4YjJmNzBiIj48ZGVmcz48bGluZWFyR3JhZGllbnQgZ3JhZGllbnRVbml0cz0idXNlclNwYWNlT25Vc2UiIHkyPSIwLjIxIiB4Mj0iOC44OCIgeTE9IjEyLjIxIiB4MT0iOC44OCIgaWQ9ImYzNGQ5NTY5LTJiZDAtNDAwMi04ZjE2LTNkMDFkODEwNmNiNSI+PHN0b3Agc3RvcC1jb2xvcj0iIzAwNzhkNCIgb2Zmc2V0PSIwIi8+PHN0b3Agc3RvcC1jb2xvcj0iIzVlYTBlZiIgb2Zmc2V0PSIwLjgyIi8+PC9saW5lYXJHcmFkaWVudD48bGluZWFyR3JhZGllbnQgZ3JhZGllbnRVbml0cz0idXNlclNwYWNlT25Vc2UiIHkyPSIxMi4yMSIgeDI9IjguODgiIHkxPSIxNi44NCIgeDE9IjguODgiIGlkPSJiZGI0NWEwYi1lYjU4LTQ5NzAtYTYwYS1mYjJjZTMxNGY4NjYiPjxzdG9wIHN0b3AtY29sb3I9IiNjY2MiIG9mZnNldD0iMC4xNSIvPjxzdG9wIHN0b3AtY29sb3I9IiM3MDcwNzAiIG9mZnNldD0iMSIvPjwvbGluZWFyR3JhZGllbnQ+PC9kZWZzPjx0aXRsZT5JY29uLWNvbXB1dGUtMjE8L3RpdGxlPjxyZWN0IGZpbGw9InVybCgjZjM0ZDk1NjktMmJkMC00MDAyLThmMTYtM2QwMWQ4MTA2Y2I1KSIgcng9IjAuNiIgaGVpZ2h0PSIxMiIgd2lkdGg9IjE4IiB5PSIwLjIxIiB4PSItMC4xMiIvPjxwb2x5Z29uIGZpbGw9IiM1MGU2ZmYiIHBvaW50cz0iMTEuODggNC40NiAxMS44OCA3Ljk1IDguODggOS43MSA4Ljg4IDYuMjEgMTEuODggNC40NiIvPjxwb2x5Z29uIGZpbGw9IiNjM2YxZmYiIHBvaW50cz0iMTEuODggNC40NiA4Ljg4IDYuMjIgNS44OCA0LjQ2IDguODggMi43MSAxMS44OCA0LjQ2Ii8+PHBvbHlnb24gZmlsbD0iIzljZWJmZiIgcG9pbnRzPSI4Ljg4IDYuMjIgOC44OCA5LjcxIDUuODggNy45NSA1Ljg4IDQuNDYgOC44OCA2LjIyIi8+PHBvbHlnb24gZmlsbD0iI2MzZjFmZiIgcG9pbnRzPSI1Ljg4IDcuOTUgOC44OCA2LjIxIDguODggOS43MSA1Ljg4IDcuOTUiLz48cG9seWdvbiBmaWxsPSIjOWNlYmZmIiBwb2ludHM9IjExLjg4IDcuOTUgOC44OCA2LjIxIDguODggOS43MSAxMS44OCA3Ljk1Ii8+PHBhdGggZmlsbD0idXJsKCNiZGI0NWEwYi1lYjU4LTQ5NzAtYTYwYS1mYjJjZTMxNGY4NjYpIiBkPSJNMTIuNDksMTUuODRjLTEuNzgtLjI4LTEuODUtMS41Ni0xLjg1LTMuNjNINy4xMWMwLDIuMDctLjA2LDMuMzUtMS44NCwzLjYzYTEsMSwwLDAsMC0uODksMWg5QTEsMSwwLDAsMCwxMi40OSwxNS44NFoiLz48L3N2Zz4=;" vertex="1" parent="1">
          <mxGeometry x="461" y="535" width="18" height="17" as="geometry" />
        </mxCell>
        <mxCell id="pbFbtCoL2FlEitgn5Cav-17" value="&lt;font style=&quot;font-size: 10px;&quot;&gt;Vnet3&lt;/font&gt;" style="text;strokeColor=none;align=center;fillColor=none;html=1;verticalAlign=middle;whiteSpace=wrap;rounded=0;" vertex="1" parent="1">
          <mxGeometry x="399" y="450" width="41" height="20" as="geometry" />
        </mxCell>
        <mxCell id="pbFbtCoL2FlEitgn5Cav-18" value="" style="shape=image;verticalLabelPosition=bottom;labelBackgroundColor=default;verticalAlign=top;aspect=fixed;imageAspect=0;editableCssRules=.*;image=data:image/svg+xml,PHN2ZyB4bWxucz0iaHR0cDovL3d3dy53My5vcmcvMjAwMC9zdmciIHZpZXdCb3g9Ii0wLjI1MjgxMTg3ODkxOTYwMTQ0IDMuNDgyNzcyMTExODkyNyAxOC41MDMwODAzNjgwNDE5OTIgMTEuMDMyODQ0NTQzNDU3MDMxIiBoZWlnaHQ9IjExLjAzMjg0NDU0MzQ1NzAzMSIgd2lkdGg9IjE4LjUwMzA4MDM2ODA0MTk5MiIgaWQ9ImExNjA2YTUyLWZiMTQtNDYzNy04N2RlLTRkNTI0YmJhMTgyOSI+PGRlZnM+PGxpbmVhckdyYWRpZW50IGdyYWRpZW50VW5pdHM9InVzZXJTcGFjZU9uVXNlIiBncmFkaWVudFRyYW5zZm9ybT0idHJhbnNsYXRlKDIuMDMgLTAuNCkgcm90YXRlKC0wLjA4KSIgeTI9IjEwLjIzIiB4Mj0iMTEuNTIiIHkxPSI4LjU5IiB4MT0iOS44OCIgaWQ9ImYwMjBmYjdlLTIyNDMtNDUwMS04MTUzLTVkNjliZDNjMzRmNyI+PHN0b3Agc3RvcC1jb2xvcj0iIzg2ZDYzMyIgb2Zmc2V0PSIwIi8+PHN0b3Agc3RvcC1jb2xvcj0iIzVlOTYyNCIgb2Zmc2V0PSIxIi8+PC9saW5lYXJHcmFkaWVudD48bGluZWFyR3JhZGllbnQgZ3JhZGllbnRVbml0cz0idXNlclNwYWNlT25Vc2UiIHkyPSIxMC4yMyIgeDI9IjcuODEiIHkxPSI4LjU5IiB4MT0iNi4xOCIgaWQ9ImIzYzJiYzk0LThjN2MtNDhhMi05NzE5LTZlZTg5OWE0M2E5NyI+PHN0b3Agc3RvcC1jb2xvcj0iIzg2ZDYzMyIgb2Zmc2V0PSIwIi8+PHN0b3Agc3RvcC1jb2xvcj0iIzVlOTYyNCIgb2Zmc2V0PSIxIi8+PC9saW5lYXJHcmFkaWVudD48bGluZWFyR3JhZGllbnQgZ3JhZGllbnRVbml0cz0idXNlclNwYWNlT25Vc2UiIHkyPSIxMC4yMyIgeDI9IjQuMTEiIHkxPSI4LjU5IiB4MT0iMi40OCIgaWQ9ImU5MDBjMzVkLTA5NTgtNGQ0Zi1iMjhmLTMwMmVlYWFmNTJmNSI+PHN0b3Agc3RvcC1jb2xvcj0iIzg2ZDYzMyIgb2Zmc2V0PSIwIi8+PHN0b3Agc3RvcC1jb2xvcj0iIzVlOTYyNCIgb2Zmc2V0PSIxIi8+PC9saW5lYXJHcmFkaWVudD48L2RlZnM+PHRpdGxlPkljb24tbmV0d29ya2luZy02MTwvdGl0bGU+PGNpcmNsZSBmaWxsPSJ1cmwoI2YwMjBmYjdlLTIyNDMtNDUwMS04MTUzLTVkNjliZDNjMzRmNykiIHI9IjEuMTYiIGN5PSI4Ljk5IiBjeD0iMTIuNzQiLz48Y2lyY2xlIGZpbGw9InVybCgjYjNjMmJjOTQtOGM3Yy00OGEyLTk3MTktNmVlODk5YTQzYTk3KSIgcj0iMS4xNiIgY3k9IjkiIGN4PSI5LjA0Ii8+PGNpcmNsZSBmaWxsPSJ1cmwoI2U5MDBjMzVkLTA5NTgtNGQ0Zi1iMjhmLTMwMmVlYWFmNTJmNSkiIHI9IjEuMTYiIGN5PSI5IiBjeD0iNS4zNCIvPjxwYXRoIGZpbGw9IiM1MGU2ZmYiIHRyYW5zZm9ybT0idHJhbnNsYXRlKDEzLjE4IDE2LjkzKSByb3RhdGUoMTM0LjkyKSIgZD0iTTIuNjEsNy4yOGguOTRhLjMuMywwLDAsMSwuMy4zdjYuOTRhLjYuNiwwLDAsMS0uNi42SDIuMzFhMCwwLDAsMCwxLDAsMFY3LjU4YS4zLjMsMCwwLDEsLjMtLjNaIi8+PHBhdGggZmlsbD0iIzE0OTBkZiIgdHJhbnNmb3JtPSJ0cmFuc2xhdGUoNS42NiAtMC4xNikgcm90YXRlKDQ0LjkyKSIgZD0iTTIuNTYsMi45MUgzLjVhLjMuMywwLDAsMSwuMy4zdjcuNDNhMCwwLDAsMCwxLDAsMEgyLjg2YS42LjYsMCwwLDEtLjYtLjZWMy4yMWEuMy4zLDAsMCwxLC4zLS4zWiIvPjxwYXRoIGZpbGw9IiM1MGU2ZmYiIHRyYW5zZm9ybT0idHJhbnNsYXRlKDEyLjMyIC03LjI4KSByb3RhdGUoNDUuMDgpIiBkPSJNMTQuMTUsNy4yOGguOTRhLjYuNiwwLDAsMSwuNi42djYuOTRhLjMuMywwLDAsMS0uMy4zaC0uOTRhLjMuMywwLDAsMS0uMy0uM1Y3LjI4YTAsMCwwLDAsMSwwLDBaIi8+PHBhdGggZmlsbD0iIzE0OTBkZiIgdHJhbnNmb3JtPSJ0cmFuc2xhdGUoMzAuMzYgMC45OSkgcm90YXRlKDEzNS4wOCkiIGQ9Ik0xNC44MSwyLjkxaC45NGEwLDAsMCwwLDEsMCwwdjcuNDNhLjMuMywwLDAsMS0uMy4zSDE0LjVhLjMuMywwLDAsMS0uMy0uM1YzLjUxYS42LjYsMCwwLDEsLjYtLjZaIi8+PC9zdmc+;" vertex="1" parent="1">
          <mxGeometry x="380" y="454.5" width="19" height="11" as="geometry" />
        </mxCell>
        <mxCell id="pbFbtCoL2FlEitgn5Cav-19" value="&lt;font style=&quot;font-size: 10px;&quot;&gt;VM1&lt;/font&gt;" style="text;strokeColor=none;align=center;fillColor=none;html=1;verticalAlign=middle;whiteSpace=wrap;rounded=0;" vertex="1" parent="1">
          <mxGeometry x="420" y="532" width="41" height="20" as="geometry" />
        </mxCell>
        <mxCell id="pbFbtCoL2FlEitgn5Cav-20" value="&lt;span style=&quot;font-size: 10px;&quot;&gt;10.2.0.4&lt;/span&gt;" style="text;strokeColor=none;align=center;fillColor=none;html=1;verticalAlign=middle;whiteSpace=wrap;rounded=0;" vertex="1" parent="1">
          <mxGeometry x="420" y="552" width="41" height="20" as="geometry" />
        </mxCell>
        <mxCell id="pbFbtCoL2FlEitgn5Cav-21" value="&lt;font style=&quot;font-size: 10px;&quot;&gt;subnet&lt;/font&gt;" style="text;strokeColor=none;align=center;fillColor=none;html=1;verticalAlign=middle;whiteSpace=wrap;rounded=0;" vertex="1" parent="1">
          <mxGeometry x="449.5" y="485" width="41" height="20" as="geometry" />
        </mxCell>
        <mxCell id="pbFbtCoL2FlEitgn5Cav-22" value="&lt;font style=&quot;font-size: 10px;&quot;&gt;Peering&lt;/font&gt;" style="text;strokeColor=none;align=center;fillColor=none;html=1;verticalAlign=middle;whiteSpace=wrap;rounded=0;" vertex="1" parent="1">
          <mxGeometry x="508" y="420" width="41" height="20" as="geometry" />
        </mxCell>
        <mxCell id="pbFbtCoL2FlEitgn5Cav-23" value="&lt;span style=&quot;font-size: 10px;&quot;&gt;10.2.0.0/24&lt;/span&gt;" style="text;strokeColor=none;align=center;fillColor=none;html=1;verticalAlign=middle;whiteSpace=wrap;rounded=0;" vertex="1" parent="1">
          <mxGeometry x="390" y="475" width="41" height="20" as="geometry" />
        </mxCell>
        <mxCell id="pbFbtCoL2FlEitgn5Cav-24" value="" style="rounded=0;whiteSpace=wrap;html=1;dashed=1;strokeColor=light-dark(#4799c2, #ededed);" vertex="1" parent="1">
          <mxGeometry x="380" y="260" width="170" height="120" as="geometry" />
        </mxCell>
        <mxCell id="pbFbtCoL2FlEitgn5Cav-26" value="" style="rounded=0;whiteSpace=wrap;html=1;dashed=1;strokeColor=light-dark(#5797ff, #ededed);" vertex="1" parent="1">
          <mxGeometry x="420" y="290" width="100" height="70" as="geometry" />
        </mxCell>
        <mxCell id="pbFbtCoL2FlEitgn5Cav-27" value="" style="shape=image;verticalLabelPosition=bottom;labelBackgroundColor=default;verticalAlign=top;aspect=fixed;imageAspect=0;editableCssRules=.*;image=data:image/svg+xml,PHN2ZyB4bWxucz0iaHR0cDovL3d3dy53My5vcmcvMjAwMC9zdmciIHZpZXdCb3g9Ii0wLjEyMDAwMDAwNDc2ODM3MTU4IDAuMjA5OTk5OTkzNDQzNDg5MDcgMTggMTYuNjMwMDAxMDY4MTE1MjM0IiBoZWlnaHQ9IjE2LjYzMDAwMTA2ODExNTIzNCIgd2lkdGg9IjE4IiBpZD0iZmQ0NTRmMWMtNTUwNi00NGI4LTg3NGUtODgxNGI4YjJmNzBiIj48ZGVmcz48bGluZWFyR3JhZGllbnQgZ3JhZGllbnRVbml0cz0idXNlclNwYWNlT25Vc2UiIHkyPSIwLjIxIiB4Mj0iOC44OCIgeTE9IjEyLjIxIiB4MT0iOC44OCIgaWQ9ImYzNGQ5NTY5LTJiZDAtNDAwMi04ZjE2LTNkMDFkODEwNmNiNSI+PHN0b3Agc3RvcC1jb2xvcj0iIzAwNzhkNCIgb2Zmc2V0PSIwIi8+PHN0b3Agc3RvcC1jb2xvcj0iIzVlYTBlZiIgb2Zmc2V0PSIwLjgyIi8+PC9saW5lYXJHcmFkaWVudD48bGluZWFyR3JhZGllbnQgZ3JhZGllbnRVbml0cz0idXNlclNwYWNlT25Vc2UiIHkyPSIxMi4yMSIgeDI9IjguODgiIHkxPSIxNi44NCIgeDE9IjguODgiIGlkPSJiZGI0NWEwYi1lYjU4LTQ5NzAtYTYwYS1mYjJjZTMxNGY4NjYiPjxzdG9wIHN0b3AtY29sb3I9IiNjY2MiIG9mZnNldD0iMC4xNSIvPjxzdG9wIHN0b3AtY29sb3I9IiM3MDcwNzAiIG9mZnNldD0iMSIvPjwvbGluZWFyR3JhZGllbnQ+PC9kZWZzPjx0aXRsZT5JY29uLWNvbXB1dGUtMjE8L3RpdGxlPjxyZWN0IGZpbGw9InVybCgjZjM0ZDk1NjktMmJkMC00MDAyLThmMTYtM2QwMWQ4MTA2Y2I1KSIgcng9IjAuNiIgaGVpZ2h0PSIxMiIgd2lkdGg9IjE4IiB5PSIwLjIxIiB4PSItMC4xMiIvPjxwb2x5Z29uIGZpbGw9IiM1MGU2ZmYiIHBvaW50cz0iMTEuODggNC40NiAxMS44OCA3Ljk1IDguODggOS43MSA4Ljg4IDYuMjEgMTEuODggNC40NiIvPjxwb2x5Z29uIGZpbGw9IiNjM2YxZmYiIHBvaW50cz0iMTEuODggNC40NiA4Ljg4IDYuMjIgNS44OCA0LjQ2IDguODggMi43MSAxMS44OCA0LjQ2Ii8+PHBvbHlnb24gZmlsbD0iIzljZWJmZiIgcG9pbnRzPSI4Ljg4IDYuMjIgOC44OCA5LjcxIDUuODggNy45NSA1Ljg4IDQuNDYgOC44OCA2LjIyIi8+PHBvbHlnb24gZmlsbD0iI2MzZjFmZiIgcG9pbnRzPSI1Ljg4IDcuOTUgOC44OCA2LjIxIDguODggOS43MSA1Ljg4IDcuOTUiLz48cG9seWdvbiBmaWxsPSIjOWNlYmZmIiBwb2ludHM9IjExLjg4IDcuOTUgOC44OCA2LjIxIDguODggOS43MSAxMS44OCA3Ljk1Ii8+PHBhdGggZmlsbD0idXJsKCNiZGI0NWEwYi1lYjU4LTQ5NzAtYTYwYS1mYjJjZTMxNGY4NjYpIiBkPSJNMTIuNDksMTUuODRjLTEuNzgtLjI4LTEuODUtMS41Ni0xLjg1LTMuNjNINy4xMWMwLDIuMDctLjA2LDMuMzUtMS44NCwzLjYzYTEsMSwwLDAsMC0uODksMWg5QTEsMSwwLDAsMCwxMi40OSwxNS44NFoiLz48L3N2Zz4=;" vertex="1" parent="1">
          <mxGeometry x="461" y="320" width="18" height="17" as="geometry" />
        </mxCell>
        <mxCell id="pbFbtCoL2FlEitgn5Cav-29" value="&lt;font style=&quot;font-size: 10px;&quot;&gt;Vnet2&lt;/font&gt;" style="text;strokeColor=none;align=center;fillColor=none;html=1;verticalAlign=middle;whiteSpace=wrap;rounded=0;" vertex="1" parent="1">
          <mxGeometry x="399" y="235" width="41" height="20" as="geometry" />
        </mxCell>
        <mxCell id="pbFbtCoL2FlEitgn5Cav-30" value="" style="shape=image;verticalLabelPosition=bottom;labelBackgroundColor=default;verticalAlign=top;aspect=fixed;imageAspect=0;editableCssRules=.*;image=data:image/svg+xml,PHN2ZyB4bWxucz0iaHR0cDovL3d3dy53My5vcmcvMjAwMC9zdmciIHZpZXdCb3g9Ii0wLjI1MjgxMTg3ODkxOTYwMTQ0IDMuNDgyNzcyMTExODkyNyAxOC41MDMwODAzNjgwNDE5OTIgMTEuMDMyODQ0NTQzNDU3MDMxIiBoZWlnaHQ9IjExLjAzMjg0NDU0MzQ1NzAzMSIgd2lkdGg9IjE4LjUwMzA4MDM2ODA0MTk5MiIgaWQ9ImExNjA2YTUyLWZiMTQtNDYzNy04N2RlLTRkNTI0YmJhMTgyOSI+PGRlZnM+PGxpbmVhckdyYWRpZW50IGdyYWRpZW50VW5pdHM9InVzZXJTcGFjZU9uVXNlIiBncmFkaWVudFRyYW5zZm9ybT0idHJhbnNsYXRlKDIuMDMgLTAuNCkgcm90YXRlKC0wLjA4KSIgeTI9IjEwLjIzIiB4Mj0iMTEuNTIiIHkxPSI4LjU5IiB4MT0iOS44OCIgaWQ9ImYwMjBmYjdlLTIyNDMtNDUwMS04MTUzLTVkNjliZDNjMzRmNyI+PHN0b3Agc3RvcC1jb2xvcj0iIzg2ZDYzMyIgb2Zmc2V0PSIwIi8+PHN0b3Agc3RvcC1jb2xvcj0iIzVlOTYyNCIgb2Zmc2V0PSIxIi8+PC9saW5lYXJHcmFkaWVudD48bGluZWFyR3JhZGllbnQgZ3JhZGllbnRVbml0cz0idXNlclNwYWNlT25Vc2UiIHkyPSIxMC4yMyIgeDI9IjcuODEiIHkxPSI4LjU5IiB4MT0iNi4xOCIgaWQ9ImIzYzJiYzk0LThjN2MtNDhhMi05NzE5LTZlZTg5OWE0M2E5NyI+PHN0b3Agc3RvcC1jb2xvcj0iIzg2ZDYzMyIgb2Zmc2V0PSIwIi8+PHN0b3Agc3RvcC1jb2xvcj0iIzVlOTYyNCIgb2Zmc2V0PSIxIi8+PC9saW5lYXJHcmFkaWVudD48bGluZWFyR3JhZGllbnQgZ3JhZGllbnRVbml0cz0idXNlclNwYWNlT25Vc2UiIHkyPSIxMC4yMyIgeDI9IjQuMTEiIHkxPSI4LjU5IiB4MT0iMi40OCIgaWQ9ImU5MDBjMzVkLTA5NTgtNGQ0Zi1iMjhmLTMwMmVlYWFmNTJmNSI+PHN0b3Agc3RvcC1jb2xvcj0iIzg2ZDYzMyIgb2Zmc2V0PSIwIi8+PHN0b3Agc3RvcC1jb2xvcj0iIzVlOTYyNCIgb2Zmc2V0PSIxIi8+PC9saW5lYXJHcmFkaWVudD48L2RlZnM+PHRpdGxlPkljb24tbmV0d29ya2luZy02MTwvdGl0bGU+PGNpcmNsZSBmaWxsPSJ1cmwoI2YwMjBmYjdlLTIyNDMtNDUwMS04MTUzLTVkNjliZDNjMzRmNykiIHI9IjEuMTYiIGN5PSI4Ljk5IiBjeD0iMTIuNzQiLz48Y2lyY2xlIGZpbGw9InVybCgjYjNjMmJjOTQtOGM3Yy00OGEyLTk3MTktNmVlODk5YTQzYTk3KSIgcj0iMS4xNiIgY3k9IjkiIGN4PSI5LjA0Ii8+PGNpcmNsZSBmaWxsPSJ1cmwoI2U5MDBjMzVkLTA5NTgtNGQ0Zi1iMjhmLTMwMmVlYWFmNTJmNSkiIHI9IjEuMTYiIGN5PSI5IiBjeD0iNS4zNCIvPjxwYXRoIGZpbGw9IiM1MGU2ZmYiIHRyYW5zZm9ybT0idHJhbnNsYXRlKDEzLjE4IDE2LjkzKSByb3RhdGUoMTM0LjkyKSIgZD0iTTIuNjEsNy4yOGguOTRhLjMuMywwLDAsMSwuMy4zdjYuOTRhLjYuNiwwLDAsMS0uNi42SDIuMzFhMCwwLDAsMCwxLDAsMFY3LjU4YS4zLjMsMCwwLDEsLjMtLjNaIi8+PHBhdGggZmlsbD0iIzE0OTBkZiIgdHJhbnNmb3JtPSJ0cmFuc2xhdGUoNS42NiAtMC4xNikgcm90YXRlKDQ0LjkyKSIgZD0iTTIuNTYsMi45MUgzLjVhLjMuMywwLDAsMSwuMy4zdjcuNDNhMCwwLDAsMCwxLDAsMEgyLjg2YS42LjYsMCwwLDEtLjYtLjZWMy4yMWEuMy4zLDAsMCwxLC4zLS4zWiIvPjxwYXRoIGZpbGw9IiM1MGU2ZmYiIHRyYW5zZm9ybT0idHJhbnNsYXRlKDEyLjMyIC03LjI4KSByb3RhdGUoNDUuMDgpIiBkPSJNMTQuMTUsNy4yOGguOTRhLjYuNiwwLDAsMSwuNi42djYuOTRhLjMuMywwLDAsMS0uMy4zaC0uOTRhLjMuMywwLDAsMS0uMy0uM1Y3LjI4YTAsMCwwLDAsMSwwLDBaIi8+PHBhdGggZmlsbD0iIzE0OTBkZiIgdHJhbnNmb3JtPSJ0cmFuc2xhdGUoMzAuMzYgMC45OSkgcm90YXRlKDEzNS4wOCkiIGQ9Ik0xNC44MSwyLjkxaC45NGEwLDAsMCwwLDEsMCwwdjcuNDNhLjMuMywwLDAsMS0uMy4zSDE0LjVhLjMuMywwLDAsMS0uMy0uM1YzLjUxYS42LjYsMCwwLDEsLjYtLjZaIi8+PC9zdmc+;" vertex="1" parent="1">
          <mxGeometry x="380" y="239.5" width="19" height="11" as="geometry" />
        </mxCell>
        <mxCell id="pbFbtCoL2FlEitgn5Cav-31" value="&lt;font style=&quot;font-size: 10px;&quot;&gt;VM1&lt;/font&gt;" style="text;strokeColor=none;align=center;fillColor=none;html=1;verticalAlign=middle;whiteSpace=wrap;rounded=0;" vertex="1" parent="1">
          <mxGeometry x="420" y="317" width="41" height="20" as="geometry" />
        </mxCell>
        <mxCell id="pbFbtCoL2FlEitgn5Cav-32" value="&lt;span style=&quot;font-size: 10px;&quot;&gt;10.1.0.4&lt;/span&gt;" style="text;strokeColor=none;align=center;fillColor=none;html=1;verticalAlign=middle;whiteSpace=wrap;rounded=0;" vertex="1" parent="1">
          <mxGeometry x="420" y="337" width="41" height="20" as="geometry" />
        </mxCell>
        <mxCell id="pbFbtCoL2FlEitgn5Cav-33" value="&lt;font style=&quot;font-size: 10px;&quot;&gt;subnet&lt;/font&gt;" style="text;strokeColor=none;align=center;fillColor=none;html=1;verticalAlign=middle;whiteSpace=wrap;rounded=0;" vertex="1" parent="1">
          <mxGeometry x="449.5" y="270" width="41" height="20" as="geometry" />
        </mxCell>
        <mxCell id="pbFbtCoL2FlEitgn5Cav-35" value="&lt;span style=&quot;font-size: 10px;&quot;&gt;10.1.0.0/24&lt;/span&gt;" style="text;strokeColor=none;align=center;fillColor=none;html=1;verticalAlign=middle;whiteSpace=wrap;rounded=0;" vertex="1" parent="1">
          <mxGeometry x="390" y="260" width="41" height="20" as="geometry" />
        </mxCell>
        <mxCell id="pbFbtCoL2FlEitgn5Cav-36" value="" style="shape=flexArrow;endArrow=classic;startArrow=classic;html=1;rounded=0;startWidth=7.884615384615384;endWidth=7.884615384615384;startSize=3.4826923076923073;endSize=3.4826923076923073;exitX=0.765;exitY=0.042;exitDx=0;exitDy=0;exitPerimeter=0;" edge="1" parent="1">
          <mxGeometry width="100" height="100" relative="1" as="geometry">
            <mxPoint x="469.75999999999993" y="480.02" as="sourcePoint" />
            <mxPoint x="469.71" y="379.98" as="targetPoint" />
          </mxGeometry>
        </mxCell>
      </root>
    </mxGraphModel>
  </diagram>
</mxfile>
